PathFileType	4	(X/Y/Z)	C:\Users\italobelli\Desktop\GitHub\PTbot_officialCBL\Personal_Results\SHRUG03_noisy1.trc
DataRate	CameraRate	NumFrames	NumMarkers	Units	OrigDataRate	OrigDataStartFrame	OrigNumFrames
110.888889	110.888889	25	9	m	110.888889	1	500
Frame#	Time		gu		centelbow		EpL		centpxt8		centijc7		ts		aa		ai		ij
			X1	Y1	Z1	X2	Y2	Z2	X3	Y3	Z3	X4	Y4	Z4	X5	Y5	Z5	X6	Y6	Z6	X7	Y7	Z7	X8	Y8	Z8	X9	Y9	Z9

1	0	-0.078876	-0.01263	0.16621	-0.11282	-0.25531	0.20332	-0.091685	-0.25089	0.22726	-0.046816	-0.15316	-0.008669	-0.046816	0.031938	-0.008669	-0.1383	0.031655	0.057511	-0.10482	0.025361	0.17181	-0.1612	-0.079362	0.063544	0	0	0
2	0.009018	-0.07893	-0.012821	0.16626	-0.11275	-0.25554	0.2033	-0.091619	-0.25112	0.22724	-0.046816	-0.15316	-0.008669	-0.046816	0.031938	-0.008669	-0.13835	0.031495	0.057561	-0.10489	0.025127	0.17186	-0.16122	-0.079539	0.06351	0	0	0
3	0.018036	-0.078983	-0.01301	0.16632	-0.11268	-0.25577	0.20328	-0.091555	-0.25136	0.22723	-0.046816	-0.15316	-0.008669	-0.046816	0.031938	-0.008669	-0.1384	0.031339	0.057611	-0.10496	0.024897	0.17192	-0.16124	-0.079713	0.063478	0	0	0
4	0.027054	-0.079033	-0.013194	0.16637	-0.11261	-0.256	0.20326	-0.091491	-0.25158	0.22721	-0.046816	-0.15316	-0.008669	-0.046816	0.031938	-0.008669	-0.13845	0.031187	0.05766	-0.10502	0.024671	0.17197	-0.16126	-0.079882	0.063448	0	0	0
5	0.036072	-0.079083	-0.013375	0.16642	-0.11255	-0.25622	0.20324	-0.091428	-0.25181	0.2272	-0.046816	-0.15316	-0.008669	-0.046816	0.031938	-0.008669	-0.1385	0.031039	0.057709	-0.10508	0.02445	0.17202	-0.16128	-0.080047	0.063421	0	0	0
6	0.04509	-0.07913	-0.013552	0.16647	-0.11248	-0.25644	0.20322	-0.091367	-0.25202	0.22718	-0.046816	-0.15316	-0.008669	-0.046816	0.031938	-0.008669	-0.13854	0.030895	0.057757	-0.10514	0.024235	0.17207	-0.1613	-0.080207	0.063396	0	0	0
7	0.054108	-0.079176	-0.013724	0.16652	-0.11242	-0.25666	0.20321	-0.091306	-0.25224	0.22717	-0.046816	-0.15316	-0.008669	-0.046816	0.031938	-0.008669	-0.13859	0.030755	0.057805	-0.1052	0.024025	0.17212	-0.16131	-0.080363	0.063373	0	0	0
8	0.063126	-0.07922	-0.013893	0.16657	-0.11235	-0.25687	0.20319	-0.091246	-0.25245	0.22716	-0.046816	-0.15316	-0.008669	-0.046816	0.031938	-0.008669	-0.13863	0.030619	0.057853	-0.10525	0.02382	0.17217	-0.16133	-0.080515	0.063352	0	0	0
9	0.072144	-0.079262	-0.014056	0.16662	-0.11229	-0.25708	0.20318	-0.091187	-0.25265	0.22715	-0.046816	-0.15316	-0.008669	-0.046816	0.031938	-0.008669	-0.13866	0.030488	0.0579	-0.1053	0.023621	0.17222	-0.16134	-0.080661	0.063334	0	0	0
10	0.081162	-0.079302	-0.014215	0.16667	-0.11223	-0.25728	0.20317	-0.091129	-0.25285	0.22714	-0.046816	-0.15316	-0.008669	-0.046816	0.031938	-0.008669	-0.1387	0.030361	0.057946	-0.10535	0.023429	0.17226	-0.16135	-0.080803	0.063318	0	0	0
11	0.09018	-0.079341	-0.014369	0.16672	-0.11217	-0.25747	0.20316	-0.091072	-0.25304	0.22713	-0.046816	-0.15316	-0.008669	-0.046816	0.031938	-0.008669	-0.13873	0.030239	0.057991	-0.1054	0.023242	0.17231	-0.16136	-0.08094	0.063303	0	0	0
12	0.099198	-0.079377	-0.014517	0.16676	-0.11211	-0.25767	0.20315	-0.091016	-0.25323	0.22713	-0.046816	-0.15316	-0.008669	-0.046816	0.031938	-0.008669	-0.13876	0.030121	0.058036	-0.10544	0.023062	0.17235	-0.16137	-0.081071	0.063291	0	0	0
13	0.10822	-0.079412	-0.01466	0.16681	-0.11205	-0.25785	0.20314	-0.090961	-0.25341	0.22712	-0.046816	-0.15316	-0.008669	-0.046816	0.031938	-0.008669	-0.13879	0.030009	0.05808	-0.10548	0.022889	0.17239	-0.16137	-0.081197	0.063281	0	0	0
14	0.11723	-0.079444	-0.014797	0.16686	-0.11199	-0.25803	0.20313	-0.090906	-0.25359	0.22711	-0.046816	-0.15316	-0.008669	-0.046816	0.031938	-0.008669	-0.13882	0.029901	0.058122	-0.10552	0.022723	0.17243	-0.16138	-0.081318	0.063273	0	0	0
15	0.12625	-0.079474	-0.014928	0.1669	-0.11193	-0.25821	0.20312	-0.090853	-0.25376	0.22711	-0.046816	-0.15316	-0.008669	-0.046816	0.031938	-0.008669	-0.13884	0.029799	0.058164	-0.10556	0.022564	0.17247	-0.16138	-0.081432	0.063268	0	0	0
16	0.13527	-0.079503	-0.015053	0.16694	-0.11188	-0.25838	0.20312	-0.0908	-0.25392	0.22711	-0.046816	-0.15316	-0.008669	-0.046816	0.031938	-0.008669	-0.13886	0.029701	0.058205	-0.10559	0.022412	0.17251	-0.16138	-0.081542	0.063264	0	0	0
17	0.14429	-0.079529	-0.015171	0.16698	-0.11182	-0.25854	0.20311	-0.090748	-0.25408	0.2271	-0.046816	-0.15316	-0.008669	-0.046816	0.031938	-0.008669	-0.13888	0.029609	0.058244	-0.10562	0.022269	0.17254	-0.16138	-0.081645	0.063262	0	0	0
18	0.15331	-0.079553	-0.015283	0.16702	-0.11177	-0.25869	0.20311	-0.090697	-0.25423	0.2271	-0.046816	-0.15316	-0.008669	-0.046816	0.031938	-0.008669	-0.13889	0.029523	0.058283	-0.10564	0.022133	0.17258	-0.16138	-0.081742	0.063262	0	0	0
19	0.16232	-0.079575	-0.015389	0.16706	-0.11172	-0.25884	0.20311	-0.090647	-0.25437	0.2271	-0.046816	-0.15316	-0.008669	-0.046816	0.031938	-0.008669	-0.13891	0.029442	0.05832	-0.10566	0.022005	0.17261	-0.16138	-0.081834	0.063264	0	0	0
20	0.17134	-0.079594	-0.015487	0.1671	-0.11167	-0.25898	0.2031	-0.090597	-0.25451	0.2271	-0.046816	-0.15316	-0.008669	-0.046816	0.031938	-0.008669	-0.13892	0.029366	0.058356	-0.10568	0.021886	0.17264	-0.16137	-0.081919	0.063268	0	0	0
21	0.18036	-0.079611	-0.015577	0.16714	-0.11162	-0.25912	0.2031	-0.090549	-0.25464	0.2271	-0.046816	-0.15316	-0.008669	-0.046816	0.031938	-0.008669	-0.13892	0.029296	0.05839	-0.1057	0.021776	0.17267	-0.16137	-0.081997	0.063274	0	0	0
22	0.18938	-0.079626	-0.015661	0.16717	-0.11157	-0.25924	0.2031	-0.090501	-0.25476	0.2271	-0.046816	-0.15316	-0.008669	-0.046816	0.031938	-0.008669	-0.13893	0.029233	0.058423	-0.10571	0.021674	0.1727	-0.16136	-0.082069	0.063282	0	0	0
23	0.1984	-0.079638	-0.015737	0.16721	-0.11152	-0.25936	0.2031	-0.090454	-0.25487	0.2271	-0.046816	-0.15316	-0.008669	-0.046816	0.031938	-0.008669	-0.13893	0.029175	0.058455	-0.10572	0.021582	0.17273	-0.16135	-0.082135	0.063292	0	0	0
24	0.20741	-0.079648	-0.015804	0.16724	-0.11147	-0.25947	0.2031	-0.090407	-0.25497	0.2271	-0.046816	-0.15316	-0.008669	-0.046816	0.031938	-0.008669	-0.13893	0.029123	0.058485	-0.10573	0.021499	0.17276	-0.16134	-0.082193	0.063303	0	0	0
25	0.21643	-0.079656	-0.015864	0.16727	-0.11142	-0.25957	0.2031	-0.090362	-0.25507	0.2271	-0.046816	-0.15316	-0.008669	-0.046816	0.031938	-0.008669	-0.13893	0.029077	0.058513	-0.10573	0.021425	0.17278	-0.16133	-0.082245	0.063316	0	0	0
